<svg width="528" height="528" viewBox="0 0 528 528" fill="none" xmlns="http://www.w3.org/2000/svg">
<path d="M151.339 78.9246C155.35 78.178 159.253 77.8934 163.3 77.4342L181.676 75.3485L227.906 70.0662L303.889 61.5143C321.761 59.4504 342.169 56.6989 359.903 55.3319C360.145 65.358 361.177 74.9874 361.593 84.9843C361.619 85.5627 361.55 85.2183 361.72 85.7719C367.005 83.9137 386.902 77.6726 391.777 77.6457C394.276 77.6321 396.854 78.4531 399.082 79.541C403.861 81.874 406.834 85.5705 408.478 90.5787C410.244 95.9428 411.637 101.475 413.197 106.904L421.467 135.444L447.371 225L462.958 278.934L467.763 295.359C470.08 303.271 472.903 309.544 468.789 317.348C466.312 322.044 462.643 324.145 457.696 325.852C456.549 326.242 455.898 326.211 454.483 326.762C461.426 329.184 470.956 331.475 478.223 332.224C479.341 332.368 480.283 332.362 481.196 332.972C481.91 335.261 480.338 353.962 480 356.84C477.749 375.922 472.039 394.432 463.151 411.469C451.703 433.268 435.157 451.974 414.919 465.994C413.469 467.009 406.886 471.704 406.199 471.551C399.431 470.054 379.785 452.509 375.991 448.724C367.392 440.151 359.859 430.575 353.548 420.201C351.283 416.485 348.746 411.119 346.564 407.857C344.048 408.738 323.468 409.886 319.622 410.131L263.127 413.836C253.113 414.549 243.094 415.197 233.07 415.772C229.292 416.008 222.451 416.766 218.928 416.621C211.95 417.228 144.488 421.88 142.806 421.285L142.269 421.178C140.825 421.672 130.891 434.782 129.833 436.57C128.307 438.064 126.978 439.749 125.88 441.581C123.753 443.959 118.806 450.062 117.125 452.755C115.774 454.017 113.234 457.21 112.38 458.837C108.932 461.923 106.776 468.456 101.386 467.774C100.176 467.621 96.9568 465.474 95.9489 464.691C91.0142 460.851 86.0777 456.976 81.1898 453.075C79.2157 451.501 76.8185 449.125 76.466 446.542C76.3776 445.427 78.0743 442.823 78.6976 441.85C81.6498 437.793 84.9219 433.768 88.0333 429.823C93.3102 423.03 98.6804 416.312 104.142 409.666C107.641 404.953 111.209 400.292 114.843 395.684C116.773 393.242 119.326 390.358 120.987 387.859C120.185 385.752 119.154 381.661 118.477 379.306L113.654 362.549L98.4631 310.058L74.5999 227.724C71.0308 215.394 67.4255 203.023 63.824 190.7C63.2004 188.138 62.4945 185.736 62.9141 183.097C65.0752 169.504 75.7959 167.956 86.9356 164.755L108.29 158.656C110.006 158.184 115.914 156.773 117.065 155.764C116.606 153.599 116.331 149.324 116.14 147.056L114.808 130.154L113.081 109.005C112.699 104.825 110.493 84.9675 111.84 82.4054C114.127 81.8347 127.585 80.9369 130.755 80.6716C130.861 79.5415 129.807 78.7024 130.493 77.1285C130.72 76.3307 131.496 74.5175 132.456 74.308C137.74 73.1554 138.253 75.1902 138.873 79.675C138.926 80.0539 139.401 80.0452 139.784 80.1489C141.472 79.5673 149.193 79.0859 151.339 78.9246ZM137.604 80.3547C137.331 69.7053 126.792 78.9449 133.321 80.6323C134.642 80.374 136.237 80.394 137.604 80.3547Z" fill="#000068"/>
<path d="M405.886 312.063C407.337 313.491 411.085 316.262 412.781 317.493C424.885 326.251 438.324 332.995 452.578 337.471C458.932 339.462 464.131 340.384 470.375 342.036C472.949 339.014 476.064 335.483 478.223 332.224C479.341 332.368 480.283 332.362 481.196 332.972C481.91 335.261 480.338 353.962 480 356.84C477.749 375.922 472.039 394.432 463.151 411.469C451.703 433.268 435.157 451.974 414.919 465.994C413.469 467.009 406.886 471.704 406.198 471.551C399.431 470.054 379.785 452.509 375.991 448.724C367.392 440.15 359.859 430.575 353.548 420.201C351.283 416.485 348.746 411.119 346.564 407.857C346.142 406.184 346.047 404.603 344.218 404.413L344.94 404.069C344.94 403.956 338.217 385.952 337.563 383.903C341.447 384.723 345.365 385.212 349.283 385.888C343.99 370.264 342.363 357.955 341.459 341.658C344.38 341.447 350.798 339.835 353.733 339.031C373.527 333.628 389.985 324.864 405.886 312.063Z" fill="#3266FE"/>
<path d="M434.88 367.745C436.712 367.421 439.616 365.58 441.309 364.607C452.477 358.195 461.065 351.15 470.225 342.233C469.496 351.162 469.164 357.701 467.465 366.595C461.322 398.735 444.34 427.798 419.354 448.932C414.997 452.639 410.544 455.919 405.878 459.219C377.346 439.246 361.506 418.366 349.304 385.94C359.267 386.524 368.187 386.746 378.161 385.51C379.829 385.301 383.634 384.989 385.125 384.533L385.35 384.591C385.417 384.718 385.483 384.842 385.55 384.969C387.477 387.654 389.717 390.508 391.765 393.089C395.363 397.62 398.81 402.341 402.581 406.698C403.242 407.464 404.563 408.606 405.476 408.788C406.21 408.935 407.999 408.478 408.348 408.097C411.931 404.196 433.028 370.787 433.406 369.045L434.88 367.745Z" fill="#000068"/>
<path d="M437.365 347.529C439.827 349.125 442.243 350.725 444.794 352.173C441.639 356.507 437.648 363.113 434.88 367.745L433.406 369.045C429.74 370.429 423.435 373.48 419.756 375.133C420.872 373.59 422.059 371.761 423.042 370.137C427.593 362.595 433.048 355.169 437.365 347.529Z" fill="#FEFEFE"/>
<path d="M419.305 375.09L419.38 375.162C419.415 375.318 419.45 375.471 419.482 375.627C415.745 381.779 409.169 391.471 405.855 397.25C404.456 395.351 402.884 393.404 401.428 391.537L394.577 382.753C401.367 381.149 412.983 378.008 419.305 375.09Z" fill="#000068"/>
<path d="M380.525 364.635C383.99 369.86 390.604 377.549 394.62 382.787C392.262 383.232 387.477 383.992 385.351 384.591L385.125 384.533C382.487 381.152 376.272 372.761 373.605 369.967C375.948 368.236 378.254 366.459 380.525 364.635Z" fill="#FEFEFE"/>
<path d="M151.339 78.9246C155.35 78.178 159.253 77.8934 163.3 77.4342L181.676 75.3485L227.906 70.0662L303.889 61.5143C321.761 59.4504 342.169 56.6989 359.902 55.3319C360.145 65.358 361.177 74.9874 361.593 84.9843C361.619 85.5627 361.549 85.2183 361.72 85.7719C356.536 87.3335 351.341 88.8672 346.14 90.3724L245.859 119.291L218.095 127.278C215.606 127.977 211.543 128.735 209.52 129.38C208.686 129.917 207.056 130.584 206.096 130.755C197.191 133.315 118.8 156.327 117.233 155.894L117.065 155.764C116.606 153.599 116.331 149.324 116.14 147.056L114.808 130.154L113.081 109.005C112.699 104.825 110.493 84.9675 111.84 82.4054C114.127 81.8347 127.585 80.9369 130.755 80.6716C130.861 79.5415 129.807 78.7024 130.493 77.1285C130.72 76.3307 131.496 74.5175 132.456 74.308C137.74 73.1554 138.253 75.1902 138.873 79.675C138.926 80.0539 139.4 80.0452 139.784 80.1489C141.472 79.5673 149.193 79.0859 151.339 78.9246ZM137.604 80.3547C137.331 69.7053 126.792 78.9449 133.321 80.6323C134.642 80.374 136.237 80.394 137.604 80.3547Z" fill="#FEFEFE"/>
<path d="M151.339 78.9246C155.35 78.178 159.253 77.8934 163.3 77.4342L181.676 75.3485L227.906 70.0662L303.889 61.5143C321.761 59.4504 342.169 56.6989 359.902 55.3319C360.145 65.358 361.177 74.9874 361.593 84.9843C361.619 85.5627 361.549 85.2183 361.72 85.7719C356.536 87.3335 351.341 88.8672 346.14 90.3724C345.281 88.2477 343.507 81.314 342.895 78.8642C341.817 74.5629 339.742 68.1048 339.034 63.8988C335.142 64.412 330.267 64.6717 326.291 64.9948L301.959 66.9669L228.19 72.9748L177.208 77.1025L161.667 78.2834C158.254 78.5513 154.749 78.9683 151.339 78.9246Z" fill="#000068"/>
<path d="M206.096 130.755C204.32 129.513 201.058 130.361 198.809 130.563L185.732 131.659L145.93 134.884C142.545 135.169 132.179 136.214 129.347 135.992L129.106 135.608C129.434 135.322 205.875 128.538 208.337 129.103L209.52 129.38C208.686 129.917 207.056 130.584 206.096 130.755Z" fill="#7FA0F1"/>
<path d="M130.755 80.6716C130.861 79.5415 129.807 78.7024 130.493 77.1284C130.72 76.3306 131.496 74.5174 132.456 74.308C137.74 73.1553 138.253 75.1901 138.873 79.675C138.926 80.0538 139.4 80.0451 139.784 80.1489L139.407 80.354C139.076 82.6708 140.574 95.4862 140.282 96.0806C134.406 108.069 131.983 84.9666 133.417 82.5073C134.897 84.4213 133.931 95.932 136.764 97.9648C137.747 98.0391 137.414 98.0382 138.415 97.4722C139.317 96.2733 139.099 94.0605 138.779 92.7209C138.093 89.8507 138.3 82.7503 137.604 80.3546C137.331 69.7052 126.792 78.9448 133.321 80.6323C132.474 80.6669 131.605 80.6643 130.755 80.6716Z" fill="#3266FE"/>
<path d="M361.72 85.7719C367.005 83.9136 386.902 77.6725 391.777 77.6457C394.276 77.6321 396.854 78.453 399.082 79.5409C403.861 81.8739 406.834 85.5705 408.478 90.5786C410.244 95.9428 411.637 101.474 413.197 106.904L421.467 135.443L447.371 225L462.958 278.934L467.763 295.359C470.08 303.271 472.903 309.544 468.789 317.348C466.312 322.044 462.643 324.144 457.696 325.852C456.549 326.242 455.898 326.211 454.483 326.762C448.409 325.818 438.781 320.449 433.19 317.816C437.322 315.854 454.043 312.592 455.82 310.07C455.896 305.767 451.972 294.108 450.642 289.525L441.676 258.576L414.393 164.264L401.073 118.198C399.628 113.201 395.123 96.2158 393.057 92.9047C391.086 92.0962 376.957 96.627 374.154 97.4395L345.854 105.615L160.719 158.968L105.683 174.862L89.3224 179.567C86.9119 180.256 78.9839 181.999 78.0145 183.998C78.0012 186.866 81.2753 197.167 82.25 200.534L89.4943 225.57L117.784 323.448L127.277 356.247C128.875 361.769 131.017 368.513 132.341 374.021C135.244 370.048 138.416 366.037 141.503 362.2C147.437 354.82 153.119 347.076 159.171 339.814C157.541 335.659 147.805 305.738 148.506 302.964C149.385 302.199 151.426 301.101 152.437 300.817C157.386 299.422 182.61 291.187 185.766 291.23L186.235 291.73C184.82 293.989 154.035 300.953 150.046 303.681C149.949 303.747 150.21 305.49 150.266 305.709C153.088 316.606 157.412 327.485 160.079 338.396C161.852 336.613 163.583 333.963 165.216 331.955C167.49 329.002 171.935 325.543 175.099 329.398C177.394 332.192 177.893 335.168 175.231 337.948C170.205 343.192 165.074 348.391 159.999 353.592L129.856 384.446L114.886 399.639C112.925 401.653 106.112 409.154 104.142 409.666C107.641 404.953 111.209 400.292 114.843 395.683C116.773 393.242 119.326 390.358 120.987 387.859C120.185 385.752 119.154 381.661 118.477 379.306L113.654 362.549L98.4631 310.058L74.5999 227.723C71.0308 215.394 67.4255 203.023 63.824 190.7C63.2004 188.138 62.4945 185.736 62.9141 183.097C65.0752 169.504 75.7959 167.956 86.9356 164.755L108.29 158.656C110.006 158.184 115.914 156.773 117.065 155.764L117.233 155.894C118.8 156.327 197.191 133.315 206.096 130.755C207.056 130.584 208.687 129.917 209.52 129.38C211.543 128.735 215.606 127.977 218.095 127.278L245.859 119.291L346.14 90.3723C351.341 88.8672 356.536 87.3334 361.72 85.7719Z" fill="#3266FE"/>
<path d="M405.837 298.24C412.304 304.6 425.191 313.803 433.19 317.816C438.781 320.449 448.409 325.818 454.482 326.762C461.426 329.184 470.956 331.475 478.223 332.224C476.064 335.483 472.949 339.014 470.375 342.037C464.131 340.384 458.932 339.462 452.578 337.471C438.324 332.995 424.885 326.251 412.781 317.493C411.085 316.262 407.337 313.491 405.886 312.063C389.985 324.864 373.527 333.628 353.733 339.031C350.797 339.835 344.38 341.447 341.459 341.658C342.363 357.955 343.99 370.264 349.283 385.888C345.365 385.212 341.447 384.724 337.563 383.903C338.216 385.952 344.94 403.956 344.94 404.069L344.218 404.413C346.047 404.603 346.142 406.184 346.564 407.857C344.048 408.738 323.468 409.886 319.622 410.131L263.127 413.836C253.113 414.549 243.094 415.197 233.07 415.772C229.292 416.008 222.451 416.766 218.928 416.621C211.95 417.228 144.488 421.88 142.806 421.285L142.269 421.178C142.138 421.082 142.232 421.175 141.952 420.73C143.034 418.748 144.898 416.742 146.449 415.107C148.224 411.258 154.619 405.213 156.951 401.356C160.945 394.747 166.133 394.513 172.997 392.569L191.817 387.171L273.551 363.613L312.017 352.531C315.606 351.488 327.967 347.619 331.198 347.137C331.111 342.565 330.698 337.613 330.522 332.978C362.098 328.005 381.736 319.423 405.837 298.24Z" fill="#FEFEFE"/>
<path d="M331.198 347.136C331.487 351.28 331.912 357.75 332.646 361.781L196.63 400.925L162.499 410.761C159.29 411.689 149.103 414.85 146.449 415.107C148.224 411.258 154.619 405.213 156.951 401.356C160.945 394.747 166.133 394.513 172.997 392.569L191.817 387.171L273.551 363.613L312.017 352.531C315.606 351.488 327.967 347.619 331.198 347.136Z" fill="#3266FE"/>
<path d="M344.218 404.413C346.047 404.603 346.142 406.184 346.564 407.857C344.048 408.738 323.468 409.886 319.622 410.131L263.127 413.836C253.113 414.549 243.094 415.197 233.07 415.772C229.292 416.008 222.451 416.766 218.928 416.621C216.11 415.555 213.577 416.924 211.824 416.575L211.935 416.231L212.653 416.245C215.406 414.471 217.07 415.399 220.024 415.702C219.552 415.306 219.166 415.052 218.657 414.705C232.376 413.24 247.664 412.313 261.564 411.174L344.218 404.413Z" fill="#000068"/>
<path d="M142.806 421.285C144.823 420.6 162.064 419.305 165.588 419.042C183.139 417.725 201.124 415.792 218.657 414.705C219.166 415.052 219.552 415.306 220.024 415.702C217.07 415.399 215.406 414.471 212.653 416.245L211.935 416.231L211.824 416.575C213.577 416.924 216.11 415.555 218.928 416.621C211.95 417.228 144.488 421.88 142.806 421.285Z" fill="#000665"/>
<path d="M262.726 152.937C294.697 143.179 327.265 134.682 359.319 125.136C360.561 124.766 362.936 123.997 364.138 124C365.488 127.168 366.843 132.319 367.843 135.753L373.477 155.125C368.505 156.743 363.344 158.244 358.293 159.632C343.033 163.827 327.823 168.663 312.523 172.669C321.535 179.801 329.343 188.171 335.052 198.218C343.545 195.277 355.022 192.303 363.881 189.764L376.722 186.163C378.514 185.66 381.915 184.133 383.545 184.642L383.724 185.055C383.614 185.24 383.565 185.479 383.397 185.61C380.811 187.612 342.49 197.176 335.656 199.711C337.641 202.536 340.077 208.259 341.303 211.616C354.606 207.38 368.389 203.829 381.799 199.919C383.487 199.427 387.203 197.837 388.682 198.468L388.792 199.028C387.636 200.415 346.819 211.665 341.794 213.035C342.848 215.993 345.039 222.718 345.065 225.733C345.143 226.523 345.085 226.373 345.333 227.109C346.163 229.786 346.472 234.119 346.651 236.996C347.691 253.063 344.273 269.105 336.775 283.354C325.849 304.08 307.122 319.602 284.729 326.494C270.146 330.952 254.66 331.579 239.763 328.317C238.311 328.011 233.336 327.04 232.309 326.369C232.66 324.72 233.961 325.881 233.994 322.119V321.749C212.877 313.713 199.151 304.051 187.853 283.754L187.136 284.082C188.333 286.475 186.618 285.548 185.145 287C184.761 287.378 184.26 288.527 184.005 289.074C182.763 286.74 178.025 276.863 177.003 275.369C176.757 274.925 176.634 274.372 176.484 273.87C176.444 272.521 173.488 263.669 172.881 261.397C170.172 262.47 165.744 263.64 162.876 264.47C157.753 265.984 152.613 267.44 147.458 268.838C145.568 269.331 142.663 270.713 141.038 270.023L141.073 269.536C142.711 268.072 149.911 266.431 152.354 265.725L172.768 259.859C171.71 255.701 171.392 251.129 171.005 246.849C166.056 248.282 139.955 256.395 136.876 255.916L137.046 255.512C140.069 253.618 145.969 252.358 149.558 251.263C156.581 249.119 164.045 247.375 170.984 245.012C169.995 235.275 173.178 221.037 176.302 211.8C160.677 216.403 144.167 221.285 128.461 225.513C125.258 215.086 122.174 204.623 119.209 194.126C149.814 185.716 180.286 176.126 210.917 167.739C214.218 166.835 218.346 164.376 221.481 162.844C225.539 160.907 229.742 159.291 234.052 158.01C238.397 156.743 242.835 155.815 247.324 155.236C253.374 154.495 256.692 154.701 262.726 152.937Z" fill="#FEFEFE"/>
<path d="M262.726 152.937C294.697 143.179 327.265 134.682 359.319 125.136C360.561 124.766 362.936 123.997 364.138 124C365.488 127.168 366.843 132.319 367.843 135.753L373.477 155.125C368.505 156.743 363.344 158.244 358.293 159.632C343.033 163.827 327.823 168.663 312.523 172.669C321.535 179.801 329.343 188.171 335.052 198.218C343.545 195.277 355.022 192.303 363.881 189.764L376.722 186.163C378.514 185.66 381.915 184.133 383.545 184.642L383.724 185.055C383.614 185.24 383.565 185.479 383.397 185.61C380.811 187.612 342.49 197.176 335.656 199.711C337.641 202.536 340.077 208.259 341.303 211.616C354.606 207.38 368.389 203.829 381.799 199.919C383.487 199.427 387.203 197.837 388.682 198.468L388.792 199.028C387.636 200.415 346.819 211.665 341.794 213.035C342.848 215.993 345.039 222.718 345.065 225.733C345.143 226.523 345.085 226.373 345.333 227.109C346.163 229.786 346.472 234.119 346.651 236.996C347.691 253.063 344.273 269.105 336.775 283.354C325.849 304.08 307.122 319.602 284.729 326.494C270.146 330.952 254.66 331.579 239.763 328.317C238.311 328.011 233.336 327.04 232.309 326.369C232.66 324.72 233.961 325.881 233.994 322.119V321.749C237.148 322.263 241.422 323.636 245.122 324.277C257.866 326.401 270.931 325.514 283.27 321.683C304.149 315.222 322.752 300.413 331.998 280.414C332.989 278.268 333.963 275.924 335.052 273.851C336.295 270.189 337.37 266.906 338.231 263.135C341.233 249.971 340.938 236.27 337.37 223.248C336.584 220.378 335.457 216.601 333.9 214.113C320.871 204.452 311.046 198.152 295.434 192.76C267.572 183.181 237.223 183.743 209.736 194.349C201.483 197.552 196.93 200.498 189.288 204.222C183.484 211.781 179.299 227.575 178.356 237.072L178.376 236.595C178.397 236.001 178.389 235.936 178.204 235.351C178.274 236.294 178.251 235.215 178.116 235.964C176.819 243.156 177.748 250.616 178.436 257.84C178.777 261.163 180.715 265.718 180.351 268.56C181.889 273.972 184.561 279.106 187.136 284.082C188.333 286.475 186.618 285.548 185.145 287C184.761 287.378 184.26 288.527 184.005 289.074C182.763 286.74 178.025 276.863 177.003 275.369C176.757 274.925 176.634 274.372 176.484 273.87C176.444 272.521 173.488 263.669 172.881 261.397C170.172 262.47 165.744 263.64 162.876 264.47C157.753 265.984 152.613 267.44 147.458 268.838C145.568 269.331 142.663 270.713 141.038 270.023L141.073 269.536C142.711 268.072 149.911 266.431 152.354 265.725L172.768 259.859C171.71 255.701 171.392 251.129 171.005 246.849C166.056 248.282 139.955 256.395 136.876 255.916L137.046 255.512C140.069 253.618 145.969 252.358 149.558 251.263C156.581 249.119 164.045 247.375 170.984 245.012C169.995 235.275 173.178 221.037 176.302 211.8C160.677 216.403 144.167 221.285 128.461 225.513C125.258 215.086 122.174 204.623 119.209 194.126C149.814 185.716 180.286 176.126 210.917 167.739C214.218 166.835 218.346 164.376 221.481 162.844C225.539 160.907 229.742 159.291 234.052 158.01C238.397 156.743 242.835 155.815 247.324 155.236C253.374 154.495 256.692 154.701 262.726 152.937Z" fill="#3266FE"/>
<path d="M262.726 152.937C294.697 143.179 327.265 134.682 359.319 125.136C360.561 124.766 362.936 123.997 364.138 124C363.474 125.348 364.112 126.553 363.835 128.073C365.161 133.181 366.869 138.554 368.346 143.651C369.149 146.427 370.519 151.471 371.591 153.985C357.966 158.004 344.319 161.942 330.646 165.801C325.112 167.387 316.34 169.641 311.144 171.547C296.393 161.446 281.822 155.395 263.717 154.494L263.484 154.449C263.329 153.558 263.329 153.624 262.726 152.937Z" fill="#000068"/>
<path d="M262.726 152.937C294.697 143.179 327.265 134.682 359.319 125.136C360.561 124.766 362.936 123.997 364.138 124C363.474 125.348 364.112 126.553 363.835 128.073C363.422 126.838 363.558 126.457 362.645 125.957C355.288 127.81 346.79 130.5 339.378 132.631L293.614 145.768C289.433 146.965 265.371 153.414 263.717 154.494L263.484 154.449C263.329 153.558 263.329 153.624 262.726 152.937Z" fill="#3266FE"/>
<path d="M189.288 204.222C189.607 202.66 191.332 200.291 192.304 198.904C198.253 190.37 205.762 183.038 214.435 177.294C232.453 165.425 254.438 161.178 275.579 165.483C296.668 169.834 315.164 182.395 326.982 200.396C328.696 203.005 333.772 211.328 333.9 214.113C320.871 204.452 311.046 198.152 295.434 192.76C267.572 183.181 237.223 183.743 209.736 194.349C201.483 197.552 196.93 200.498 189.288 204.222Z" fill="#3266FE"/>
<path d="M180.351 268.56C173.401 249.888 175.4 225.495 183.658 207.465C192.901 187.571 209.672 172.166 230.279 164.644C250.983 157.001 273.88 157.934 293.894 167.236C313.916 176.504 329.38 193.424 336.815 214.198C342.36 229.75 343.233 246.586 339.326 262.628C338.809 264.738 336.61 273.163 335.052 273.85C336.295 270.189 337.37 266.906 338.231 263.135C341.233 249.971 340.938 236.27 337.37 223.248C336.584 220.378 335.457 216.601 333.9 214.113C333.772 211.328 328.695 203.005 326.982 200.396C315.164 182.395 296.668 169.834 275.579 165.483C254.438 161.178 232.453 165.425 214.435 177.294C205.762 183.038 198.253 190.37 192.304 198.904C191.332 200.291 189.607 202.66 189.288 204.222C183.484 211.781 179.299 227.575 178.356 237.072L178.376 236.595C178.397 236.001 178.389 235.936 178.204 235.351C178.274 236.294 178.251 235.215 178.116 235.964C176.819 243.156 177.748 250.616 178.436 257.84C178.777 261.163 180.715 265.718 180.351 268.56Z" fill="#000068"/>
<path d="M207.729 170.227L207.971 170.501C207.697 170.869 207.666 170.921 207.283 171.188C197.396 178.098 188.641 188.037 182.658 198.487C180.531 202.202 178.781 206.083 176.911 209.885C161.392 214.648 145.175 218.996 129.511 223.575C128.931 221.428 128.295 219.265 127.685 217.124C125.287 210.459 123.643 202.173 121.036 195.198C126.279 193.953 132.511 191.992 137.729 190.491L167.221 182.025L192.515 174.796C197.312 173.423 203.127 171.914 207.729 170.227Z" fill="#000068"/>
<path d="M180.351 268.56C180.715 265.718 178.777 261.163 178.436 257.84C177.748 250.616 176.819 243.156 178.116 235.964C178.251 235.215 178.274 236.294 178.204 235.351C178.389 235.936 178.397 236.001 178.376 236.595L178.356 237.072C177.37 254.349 179.537 268.351 187.853 283.754L187.136 284.082C184.561 279.106 181.889 273.972 180.351 268.56Z" fill="#000665"/>
<path d="M226.222 233.709C229.41 233.774 237.08 234.299 239.533 232.942C241.618 231.79 253.032 226.807 253.769 225.735C255.854 228.59 266.053 227.06 269.119 226.081C273.103 227.847 282.011 232.758 285.417 233.758C286.982 236.159 287.155 236.735 287.399 239.612L287.233 239.875L287.226 254.721C290.713 255.484 294.16 256.406 297.613 257.299L302.031 274.814C302.704 277.463 303.721 281.898 304.585 284.325L298.867 285.73L292.776 261.914C290.692 261.545 289.155 261.09 287.111 260.496C284.454 269.767 281.966 280.391 272.648 285.873C270.436 287.685 264.187 290.672 261.329 292.111C258.113 290.239 254.703 288.85 251.483 286.741C241.485 280.193 238.183 271.65 235.884 260.461C233.91 261.055 231.916 261.578 229.905 262.031C228.637 268.705 225.743 278.846 224 285.725C222.123 285.265 220.24 284.832 218.351 284.428C220.609 275.721 223.25 266.044 225.161 257.32C228.532 256.446 232.363 255.368 235.741 254.713C235.347 250.974 235.563 243.497 235.598 239.541C231.864 239.582 228.13 239.54 224.398 239.415C221.382 237.525 218.344 235.366 215.403 233.337C216.552 232.155 217.91 230.03 218.884 228.608C221.092 230.376 223.846 232.13 226.222 233.709Z" fill="#3266FE"/>
<path d="M260.48 274.935C261.154 274.84 262.244 274.589 262.715 274.113C265.451 271.351 268.284 266.791 270.52 263.563L282.489 246.296C283.507 244.827 286.1 240.83 287.233 239.875L287.226 254.721C290.713 255.484 294.16 256.406 297.613 257.299L302.031 274.814C302.704 277.463 303.721 281.898 304.585 284.324L298.867 285.73L292.776 261.914C290.692 261.545 289.155 261.09 287.111 260.496C284.454 269.767 281.966 280.391 272.648 285.873C271.362 283.225 267.387 277.902 265.576 274.667C264.439 276.197 263.681 277.578 261.797 277.977C260.852 277.769 260.911 277.806 260.249 277.103C260.995 276.215 260.83 275.911 260.48 274.935Z" fill="#000068"/>
<path d="M245.663 252.556L254.415 266.141C256.116 268.778 258.464 272.657 260.48 274.935C260.83 275.911 260.995 276.215 260.249 277.103C259.109 275.879 255.993 270.643 255.064 269.122C251.975 264 248.838 258.907 245.653 253.845L245.663 252.556Z" fill="#000665"/>
<path d="M245.653 253.845C244.94 252.86 240.798 246.205 241.009 245.484C242.679 247.858 244.254 250.01 245.663 252.556L245.653 253.845Z" fill="#1130B6"/>
<path d="M221.931 301.011C223.7 301.127 231.138 303.568 233.595 304.152C238.439 305.374 243.736 306.333 248.637 307.062C262.023 309.055 275.266 309.307 288.642 307.252C289.635 307.102 290.039 307.457 290.701 308.093C291.617 311.043 288.051 313.101 285.932 314.629C270.45 324.74 242.117 320.327 227.224 310.304C225.008 308.81 221.438 306.198 220.869 303.38C220.682 302.45 221.388 301.71 221.931 301.011Z" fill="#3266FE"/>
<path d="M255.29 216.874L255.104 216.59C250.931 210.32 244.898 203.982 240.372 197.854C239.191 196.255 237.824 195.762 238.045 193.6C238.675 192.696 238.269 192.986 239.266 192.649C239.981 192.874 252.043 208.275 253.447 210.225C258.264 216.914 258.572 211.794 266.049 213.959C268.509 212.415 280.214 195.441 283.41 192.7C283.594 192.721 283.777 192.741 283.961 192.762C284.862 193.492 284.868 193.273 285.219 194.204C284.926 194.933 269.035 215.003 267.395 216.766C267.991 219.867 268.566 222.972 269.119 226.081C266.053 227.06 255.854 228.59 253.769 225.735C254.346 222.794 254.853 219.839 255.29 216.874Z" fill="#000068"/>
<path d="M296.758 233.694C299.092 232.029 301.785 230.257 304.028 228.54C305.01 230.065 306.192 232.018 307.293 233.4C304.536 235.505 301.202 237.696 298.24 239.493C294.625 239.476 291.01 239.516 287.399 239.612C287.154 236.735 286.982 236.159 285.417 233.758C289.112 233.75 293.088 233.813 296.758 233.694Z" fill="#000068"/>
<path d="M193.743 301.534C199.574 307.9 208.845 315.875 216.581 319.842C215.387 321.284 213.199 323.76 212.36 325.297C212.959 327.011 213.575 328.239 212.936 329.976C211.512 331.12 210.099 330.415 208.719 329.522C207.737 331.259 206.347 332.767 205.117 334.353C203.324 336.575 201.876 338.393 200.25 340.756C197.477 338.196 193.31 335.067 190.272 332.686C186.011 329.351 181.54 325.682 177.21 322.477C179.515 319.908 181.938 316.718 184.111 313.982C184.733 313.034 185.258 312.477 186.004 311.633C184.542 310.246 183.968 309.171 185.119 307.284C185.92 306.648 186.033 306.689 187.099 306.588L189.114 307.327C190.129 306.799 192.884 302.727 193.743 301.534Z" fill="#FEFEFE"/>
<path d="M193.743 301.534C199.574 307.9 208.845 315.875 216.581 319.842C215.387 321.284 213.199 323.76 212.36 325.297C212.959 327.011 213.575 328.239 212.936 329.976C211.512 331.12 210.099 330.415 208.719 329.522C201.624 323.653 193.355 317.215 186.004 311.633C184.541 310.246 183.968 309.171 185.119 307.284C185.92 306.648 186.033 306.689 187.099 306.588L189.114 307.327C190.129 306.799 192.884 302.727 193.743 301.534Z" fill="#FEFEFE"/>
<path d="M186.004 311.633C193.355 317.215 201.624 323.653 208.719 329.522C207.737 331.259 206.347 332.767 205.117 334.353C204.15 333.325 203.1 331.966 202.219 330.845C196.982 324.182 190.534 319.362 184.111 313.982C184.733 313.034 185.258 312.477 186.004 311.633Z" fill="#3266FE"/>
<path d="M416.884 286.419C417.67 287.105 417.947 288.831 418.242 289.933C410.125 291.9 400.775 294.761 392.667 297.035L348.255 309.564C347.414 309.027 347.073 307.044 346.775 305.981C354.438 304.175 363.318 301.444 370.969 299.297L416.884 286.419Z" fill="#3266FE"/>
<path d="M410.328 265.306C410.492 265.281 410.932 265.339 411.119 265.357C411.72 266.222 412.09 267.709 412.417 268.759C405.907 270.271 398.712 272.445 392.216 274.266L361 283.087L360.521 283.013C359.874 282.348 359.59 280.602 359.345 279.607C376.139 275.174 393.609 270.081 410.328 265.306Z" fill="#3266FE"/>
<path d="M226.168 324.358C228.145 325.205 229.274 328.259 229.573 330.181C230.481 336.009 238.705 355.609 237.746 360.385C236.106 362.965 217.514 367.739 213.528 368.921L174.312 380.456C173.854 380.516 174.085 380.557 173.639 380.248C174.7 377.855 186.393 375.156 189.443 374.266L219.496 365.375C224.316 363.948 232.496 361.792 236.781 359.917C234.787 351.82 231.134 342.441 228.928 334.269C228.25 331.764 226.361 326.676 226.168 324.358Z" fill="#3266FE"/>
<path d="M405.112 244.797C405.86 245.214 406.326 247.384 406.603 248.307C393.022 251.603 377.248 256.51 363.61 260.302C362.965 259.502 362.619 257.835 362.321 256.778L405.112 244.797Z" fill="#3266FE"/>
<path d="M396.914 225.996C397.819 225.895 397.891 225.805 398.697 226.245L398.547 226.719C396.111 228.59 357.287 239.14 351.43 240.769C350.491 241.194 350.168 241.151 349.474 240.493L349.636 240.032C352.144 238.149 390.462 227.835 396.914 225.996Z" fill="#3266FE"/>
<path d="M345.065 225.733C355.424 222.652 365.806 219.642 376.208 216.706C379.953 215.633 390.514 212.016 393.649 212.29L394.01 212.575C392.739 214.51 386.064 215.415 383.732 216.197C378.765 217.864 373.616 219.254 368.571 220.692L354.175 224.788C351.575 225.527 347.937 226.744 345.333 227.109C345.085 226.373 345.143 226.523 345.065 225.733Z" fill="#3266FE"/>
<path d="M177.003 275.369C175.583 276.114 167.692 278.52 166.287 278.716C162.489 279.247 149.851 284.407 146.785 283.515L146.885 283.113C149.942 281.029 170.826 275.849 176.484 273.87C176.634 274.371 176.757 274.925 177.003 275.369Z" fill="#3266FE"/>
<path d="M112.51 267.133C113.405 267.455 113.097 267.167 113.499 267.986C113.292 269.244 112.414 270.248 111.659 271.333C112.967 272.059 115.021 272.797 115.197 274.319L114.612 274.887C112.833 274.052 111.077 273.167 109.348 272.233C110.435 270.318 111.236 268.914 112.51 267.133Z" fill="#3266FE"/>
<path d="M408.6 181.651C410.342 181.831 412.844 183.373 414.462 184.246C413.596 185.8 412.665 187.289 411.732 188.803L411.171 189.281L410.654 189.239L410.489 188.578C410.859 186.857 411.215 186.467 412.188 185.068C410.31 184.053 408.704 183.799 408.6 181.651Z" fill="#3266FE"/>
<path d="M92.5945 192.25C93.4399 191.927 94.3874 192.35 94.7128 193.194C95.0381 194.039 94.6189 194.987 93.7751 195.315C92.9282 195.645 91.9747 195.223 91.6478 194.375C91.321 193.527 91.7455 192.575 92.5945 192.25Z" fill="#3266FE"/>
<path d="M91.3652 186.127C92.2205 186.084 92.9634 186.709 93.068 187.559C93.1726 188.409 92.6033 189.196 91.7634 189.362C91.1626 189.481 90.5457 189.254 90.1654 188.774C89.7849 188.294 89.7049 187.642 89.9574 187.084C90.2102 186.527 90.7538 186.157 91.3652 186.127Z" fill="#3266FE"/>
<path d="M94.9034 198.149C95.5259 198.124 95.4958 198.172 96.0341 198.513C96.9614 200.345 96.5638 200.833 94.9257 201.583L94.0906 201.333C93.2836 200.386 93.4749 200.904 93.337 199.797C93.8343 198.561 93.5867 198.982 94.9034 198.149Z" fill="#3266FE"/>
</svg>
