<svg width="1440" height="1440" viewBox="0 0 1440 1440" fill="none" xmlns="http://www.w3.org/2000/svg">
<g opacity="0.3" filter="url(#filter0_dd_328_193)">
<circle cx="720" cy="716" r="250" transform="rotate(-0.414531 720 716)" fill="#C6C6C6"/>
</g>
<g clip-path="url(#clip0_328_193)">
<path opacity="0.3" d="M580.062 678.636C587.132 670.877 596.202 662.245 603.732 654.713L646.306 612.14L669.361 589.092C673.895 584.559 679.052 579.023 684.127 575.243C687.274 573.427 692.31 572.711 695.767 572.46C703.275 571.915 709.791 575.281 716.799 577.278L761.836 590.354C765.157 591.285 768.576 591.863 771.902 592.784C776.491 594.056 781.009 595.674 785.584 597.015C791.246 598.675 796.961 600.06 802.671 601.736C808.3 603.389 814.382 604.653 819.779 606.948C823.304 608.448 825.877 612.35 828.712 614.824C830.54 616.418 836.638 640.279 837.622 644.655C839.067 651.084 841.627 657.119 843.429 663.436L858.862 718.564C860.913 726.106 864.871 733.535 863.785 741.642C863.204 745.982 862.542 749.518 859.963 753.112C857.669 756.541 850.309 763.545 847.004 766.848L823.675 790.156L782.373 831.453C775.265 838.562 768.15 845.851 760.909 852.814C758.902 854.743 755.586 857.278 752.948 858.073C749.246 859.189 743.602 860.036 739.81 859.554C733.088 858.701 727.089 855.941 720.729 854.124L676.215 841.264C673.398 840.453 670.356 839.922 667.504 839.135C663.08 837.926 659.246 836.273 654.758 835.087C643.129 832.013 631.085 828.613 619.802 824.542C617.509 823.715 611.965 817.503 610.963 815.293C609.371 811.783 608.304 806.994 607.223 803.153L601.358 782.849C600.026 778.254 597.943 773.216 596.913 768.623C595.484 762.247 593.885 757.145 591.799 751.036C589.475 744.228 588.509 736.267 585.909 729.482C585.375 728.089 584.864 726.582 584.43 725.157L578.635 705.705C575.717 696.165 575.221 687.746 580.062 678.636ZM720.296 731.885C723.717 727.8 731.466 720.625 735.663 716.161C723.817 704.401 712.186 692.427 700.774 680.246C696.388 675.5 685.575 662.883 681.445 659.441C678.199 660.841 667.789 672.078 664.531 675.403C663.919 676.599 663.766 676.402 664.027 677.419C670.04 681.452 684.01 695.975 689.584 701.477L709.816 721.758C713.153 725.048 717.131 728.492 720.296 731.885ZM769.679 762.264C772.228 758.722 774.463 755.325 773.552 750.825C772.15 743.895 764.885 737.696 757.618 739.232C753.266 740.151 749.318 743.018 746.902 746.602C744.422 749.6 742.815 753.247 743.119 757.16C743.623 763.637 751.143 770.616 757.754 769.735C762.661 769.081 766.58 765.827 769.679 762.264Z" fill="#6F6F6F"/>
</g>
<defs>
<filter id="filter0_dd_328_193" x="0" y="-0.00012207" width="1440" height="1440" filterUnits="userSpaceOnUse" color-interpolation-filters="sRGB">
<feFlood flood-opacity="0" result="BackgroundImageFix"/>
<feColorMatrix in="SourceAlpha" type="matrix" values="0 0 0 0 0 0 0 0 0 0 0 0 0 0 0 0 0 0 127 0" result="hardAlpha"/>
<feMorphology radius="220" operator="dilate" in="SourceAlpha" result="effect1_dropShadow_328_193"/>
<feOffset dy="4"/>
<feGaussianBlur stdDeviation="125"/>
<feComposite in2="hardAlpha" operator="out"/>
<feColorMatrix type="matrix" values="0 0 0 0 0.776471 0 0 0 0 0.776471 0 0 0 0 0.776471 0 0 0 1 0"/>
<feBlend mode="normal" in2="BackgroundImageFix" result="effect1_dropShadow_328_193"/>
<feColorMatrix in="SourceAlpha" type="matrix" values="0 0 0 0 0 0 0 0 0 0 0 0 0 0 0 0 0 0 127 0" result="hardAlpha"/>
<feOffset dy="-4"/>
<feGaussianBlur stdDeviation="2"/>
<feComposite in2="hardAlpha" operator="out"/>
<feColorMatrix type="matrix" values="0 0 0 0 0 0 0 0 0 0 0 0 0 0 0 0 0 0 0.25 0"/>
<feBlend mode="normal" in2="effect1_dropShadow_328_193" result="effect2_dropShadow_328_193"/>
<feBlend mode="normal" in="SourceGraphic" in2="effect2_dropShadow_328_193" result="shape"/>
</filter>
<clipPath id="clip0_328_193">
<rect width="342.043" height="342.043" fill="white" transform="translate(548.979 544.979)"/>
</clipPath>
</defs>
</svg>
