<svg width="1440" height="1440" viewBox="0 0 1440 1440" fill="none" xmlns="http://www.w3.org/2000/svg">
<g opacity="0.3" filter="url(#filter0_dd_328_188)">
<circle cx="720" cy="716" r="250" transform="rotate(-0.414531 720 716)" fill="#C6C6C6"/>
</g>
<g opacity="0.3" clip-path="url(#clip0_328_188)">
<path d="M717.452 558.408C717.647 558.577 717.838 558.75 718.026 558.926C729.772 569.965 742.416 583.17 753.896 594.656L819.984 660.756L857.991 698.765C864.328 705.101 870.572 711.157 876.84 717.886C881.705 723.109 882.112 735.13 878.092 740.872C875.669 744.333 869.445 749.898 866.284 753.057L840.383 778.934L771.369 847.946C759.102 860.214 746.072 872.847 734.107 885.332C730.473 881.541 726.496 877.685 722.77 873.954L550.776 702.006L644.101 608.649L675.941 576.79C681.58 571.147 687.17 565.428 692.953 559.942C696.424 556.65 700.38 555.288 705.099 555.146C709.492 555.015 713.535 556.561 717.452 558.408ZM776.168 701.936C769.346 710.381 763.638 705.915 755.625 709.084C754.174 709.658 746.824 717.328 745.031 719.121L717.585 746.576C712.463 751.705 705.728 759.116 699.919 763.409C699.314 763.856 695.596 764.786 694.564 765.136C693.33 765.555 691.341 766.46 690.078 766.656C681.075 768.054 673.112 765.899 666.126 760.108C660.559 755.494 656.096 748.406 655.253 741.329C654.241 732.845 655.523 725.196 661.387 718.786C664.265 715.641 683.007 696.138 685.293 695.228C685.681 695.353 686.135 695.4 686.227 695.903C687.981 705.517 688.028 714.886 688.651 724.598C688.715 725.589 688.33 727.516 688.154 728.256C687.332 729.054 686.131 730.19 685.057 730.589C680.507 732.28 675.464 731.364 675.328 738.055C675.318 738.764 675.325 739.474 675.346 740.184C678.415 744.611 679.66 745.754 684.851 747.018C687.542 746.223 689.806 745.735 691.941 743.858C694.96 741.203 697.881 738.133 700.724 735.284L717.081 718.87C721.326 714.611 739.359 697.578 741.378 693.928C743.423 690.232 742.576 684.57 743.929 680.45C744.702 678.098 746.272 675.963 747.57 673.88C744.218 669.576 733.888 659.772 729.416 655.3L694.738 620.631C689.63 615.525 682.1 608.491 677.529 603.374L611.76 669.21L589.969 691.003C586.838 694.134 582.057 699.244 578.909 701.989L670.548 793.545C691.568 814.566 713.362 835.877 734.076 857.129C749.961 840.877 766.376 824.727 782.459 808.646L832.706 758.456C827.343 753.52 821.547 747.453 816.352 742.258L787.602 713.497C784.342 710.256 779.026 705.283 776.168 701.936ZM739.452 609.686C737.567 608.318 737.065 608.156 734.835 607.597C729.104 609.409 722.97 612.77 724.66 620.316C725.151 622.507 727.489 624.699 729.263 626.026C740.127 630.727 749.652 617.825 739.452 609.686ZM711.508 581.766C702.032 574.578 690.076 587.626 699.769 596.872C709.176 603.787 722.309 590.237 711.508 581.766ZM762.54 631.48C760.022 634.252 750.752 643.905 748.055 645.798C755.952 653.348 764.251 662.009 772.045 669.805L820.476 718.231C828.426 726.179 838.546 736.889 846.708 744.327C847.912 743.501 859.106 732 861.11 730.045L762.54 631.48Z" fill="#6F6F6F"/>
</g>
<defs>
<filter id="filter0_dd_328_188" x="-7.62939e-06" y="0" width="1440" height="1440" filterUnits="userSpaceOnUse" color-interpolation-filters="sRGB">
<feFlood flood-opacity="0" result="BackgroundImageFix"/>
<feColorMatrix in="SourceAlpha" type="matrix" values="0 0 0 0 0 0 0 0 0 0 0 0 0 0 0 0 0 0 127 0" result="hardAlpha"/>
<feMorphology radius="220" operator="dilate" in="SourceAlpha" result="effect1_dropShadow_328_188"/>
<feOffset dy="4"/>
<feGaussianBlur stdDeviation="125"/>
<feComposite in2="hardAlpha" operator="out"/>
<feColorMatrix type="matrix" values="0 0 0 0 0.776471 0 0 0 0 0.776471 0 0 0 0 0.776471 0 0 0 1 0"/>
<feBlend mode="normal" in2="BackgroundImageFix" result="effect1_dropShadow_328_188"/>
<feColorMatrix in="SourceAlpha" type="matrix" values="0 0 0 0 0 0 0 0 0 0 0 0 0 0 0 0 0 0 127 0" result="hardAlpha"/>
<feOffset dy="-4"/>
<feGaussianBlur stdDeviation="2"/>
<feComposite in2="hardAlpha" operator="out"/>
<feColorMatrix type="matrix" values="0 0 0 0 0 0 0 0 0 0 0 0 0 0 0 0 0 0 0.25 0"/>
<feBlend mode="normal" in2="effect1_dropShadow_328_188" result="effect2_dropShadow_328_188"/>
<feBlend mode="normal" in="SourceGraphic" in2="effect2_dropShadow_328_188" result="shape"/>
</filter>
<clipPath id="clip0_328_188">
<rect width="298.783" height="298.783" fill="white" transform="translate(720 504.728) rotate(45)"/>
</clipPath>
</defs>
</svg>
