<svg width="1440" height="1440" viewBox="0 0 1440 1440" fill="none" xmlns="http://www.w3.org/2000/svg">
<g opacity="0.3" filter="url(#filter0_dd_328_127)">
<circle cx="720" cy="716" r="250" transform="rotate(-0.414531 720 716)" fill="#C6C6C6"/>
</g>
<g opacity="0.3" clip-path="url(#clip0_328_127)">
<g filter="url(#filter1_d_328_127)">
<path d="M580.926 661.222C585.536 655.351 587.432 656.218 594.064 656.973C595.31 657.963 598.235 660.509 598.811 661.88C600.535 665.983 601.607 670.756 603.089 675.038C603.387 676.531 604.763 678.245 605.133 679.589C607.721 689.003 610.939 698.096 614.434 707.201C616.1 711.542 616.702 716.168 618.712 720.535C621.619 720.709 625.208 721.56 628.363 721.877C634.607 722.506 640.561 722.995 646.839 723.68C652.65 724.314 659.711 726.231 665.622 725.097C668.544 724.762 671.701 720.859 673.847 719.945C678.296 718.05 679.885 716.341 683.484 713.329C693.521 704.93 702.516 695.344 710.813 685.24C712.119 683.65 713.076 681.193 714.285 679.484C717.136 675.634 719.386 672.46 721.342 668.003C723.102 663.99 724.809 662.296 723.704 657.559C722.321 651.63 720.897 645.854 719.165 640.022C718.027 636.047 717.395 631.77 716.196 627.792C715.89 626.771 715.27 625.818 714.681 624.933C710.495 622.542 705.713 621.516 701.166 620.016C696.624 618.519 692.181 616.724 687.641 615.219C679.676 612.579 658.759 606.913 653.001 601.72C651.353 600.233 650.728 598.18 650.627 596.007C650.476 592.744 651.527 590.408 653.758 588.048C656.398 585.256 659.502 585.744 662.996 585.649C663.509 585.987 664.623 586.647 665.207 586.79C674.732 589.121 683.829 593.021 693.146 595.915C701.808 598.605 710.15 600.89 718.462 604.631C722.121 606.278 727.703 605.925 730.782 609.137C731.767 610.165 732.831 611.007 733.609 612.237C734.362 613.331 734.758 614.857 734.925 616.177C735.491 620.654 737.001 624.599 738.272 628.872C738.936 631.02 739.102 633.911 739.817 635.98C741.991 642.274 742.291 650.065 745.021 656.01C749.602 658.579 754.623 660.2 759.552 661.951C762.648 663.05 767.869 665.73 770.83 666.257C770.189 655.23 770.573 644.057 770.626 633.018C770.639 630.216 770.518 627.425 770.02 624.672C769.094 619.559 763.87 617.706 760.247 614.814C756.727 611.986 753.45 608.944 749.857 606.215C747.029 604.156 743.57 602.578 740.805 600.472C736.613 597.277 732.7 593.56 728.493 590.386C724.631 587.473 720.443 585.19 717.314 581.374C715.435 579.081 713.611 576.629 713.947 573.47C714.357 569.465 716.905 566.948 719.777 564.574C722.5 564.593 726.463 564.44 728.948 565.469C730.652 565.709 734.269 570.196 735.35 570.596C743.311 573.538 747.895 580.946 754.632 585.844C756.224 587.001 757.836 585.916 759.057 586.822C763.851 590.375 767.704 595.138 772.365 598.875C774.539 600.618 776.258 599.618 777.944 600.796C782.29 603.831 787.095 608.994 790.75 612.909C790.716 613.856 790.605 615.47 790.71 616.352C791.712 624.78 790.848 632.882 791.115 641.336C791.119 651.181 790.923 661.08 791.15 670.924C791.202 673.17 790.719 678.958 791.385 680.943C793.771 688.271 802.295 693.444 806.847 699.161C814.42 708.673 823.353 723.025 822.65 735.601C821.232 760.932 798.821 783.511 781.521 800.193C769.334 811.946 752.22 824.718 735.443 828.09C728.286 829.404 716.905 827.742 710.38 824.279C705.031 821.44 697.002 814.587 691.465 811.091C687.823 808.791 679.865 797.709 675.296 797.401C661.076 796.444 646.877 797.164 632.607 796.816C628.016 796.694 624.124 797.176 619.821 797.062C615.39 796.944 611.271 796.392 606.93 796.257C599.038 790.053 597.806 786.077 592.365 778.529L577.938 758.85C575.112 754.986 571.941 751.819 568.995 748.14C566.216 744.669 564.079 740.281 560.903 736.935C558.839 734.494 558.297 731.381 558.889 728.332C560.756 718.703 566.013 719.846 573.101 720.86C580.358 726.088 583.049 732.051 588.045 738.917C591.243 743.31 596.389 747.46 599.471 752.084C600.463 753.572 600.349 756.546 601.884 757.975C604.939 762.048 608.329 764.952 611.616 768.783C613.89 771.433 613.272 772.359 614.858 774.634C615.495 775.547 619.061 776.285 620.323 776.337C627.803 776.645 635.714 776.589 643.2 776.436C648.782 776.323 654.525 776.847 659.945 776.744C659.337 772.069 654.772 763.31 653.123 758.299C652.07 755.101 650.241 750.87 649.096 747.636C648.842 746.918 647.665 745.682 647.084 745.077C640.392 742.4 630.065 742.755 622.799 741.976C618.085 741.472 611.129 740.642 606.572 739.109C605.298 738.503 601.863 735.461 601.505 734.117C599.862 727.948 597.102 721.906 594.991 716.091C592.372 708.875 590.823 700.896 588.114 693.683C585.057 685.545 582.465 677.405 580.074 669.056C579.34 666.351 579.544 663.657 580.926 661.222Z" fill="#6F6F6F"/>
</g>
<g filter="url(#filter2_d_328_127)">
<path d="M630.166 640.108C631.849 638.313 633.225 637.015 635.054 635.362C639.554 634.707 644.113 634.571 648.644 634.955C651.122 635.183 653.743 636.149 655.947 636.452C661.487 637.21 667.296 638.253 672.44 640.494C680.622 643.81 685.02 648.315 690.96 654.363C697.107 660.623 695.062 658.781 697.693 666.352C694.979 674.197 690.175 679.433 684.36 685.31C678.98 690.748 672.444 697.523 665.738 701.239C664.4 701.98 661.629 702.831 660.108 703.316C652.95 701.296 652.427 700.444 647.058 695.706C633.644 683.87 629.632 667.169 628.873 650.045C628.721 646.614 628.995 643.326 630.166 640.108Z" fill="#6F6F6F"/>
</g>
</g>
<defs>
<filter id="filter0_dd_328_127" x="0" y="0" width="1440" height="1440" filterUnits="userSpaceOnUse" color-interpolation-filters="sRGB">
<feFlood flood-opacity="0" result="BackgroundImageFix"/>
<feColorMatrix in="SourceAlpha" type="matrix" values="0 0 0 0 0 0 0 0 0 0 0 0 0 0 0 0 0 0 127 0" result="hardAlpha"/>
<feMorphology radius="220" operator="dilate" in="SourceAlpha" result="effect1_dropShadow_328_127"/>
<feOffset dy="4"/>
<feGaussianBlur stdDeviation="125"/>
<feComposite in2="hardAlpha" operator="out"/>
<feColorMatrix type="matrix" values="0 0 0 0 0.776471 0 0 0 0 0.776471 0 0 0 0 0.776471 0 0 0 1 0"/>
<feBlend mode="normal" in2="BackgroundImageFix" result="effect1_dropShadow_328_127"/>
<feColorMatrix in="SourceAlpha" type="matrix" values="0 0 0 0 0 0 0 0 0 0 0 0 0 0 0 0 0 0 127 0" result="hardAlpha"/>
<feOffset dy="-4"/>
<feGaussianBlur stdDeviation="2"/>
<feComposite in2="hardAlpha" operator="out"/>
<feColorMatrix type="matrix" values="0 0 0 0 0 0 0 0 0 0 0 0 0 0 0 0 0 0 0.25 0"/>
<feBlend mode="normal" in2="effect1_dropShadow_328_127" result="effect2_dropShadow_328_127"/>
<feBlend mode="normal" in="SourceGraphic" in2="effect2_dropShadow_328_127" result="shape"/>
</filter>
<filter id="filter1_d_328_127" x="548.664" y="550.573" width="284.025" height="283.965" filterUnits="userSpaceOnUse" color-interpolation-filters="sRGB">
<feFlood flood-opacity="0" result="BackgroundImageFix"/>
<feColorMatrix in="SourceAlpha" type="matrix" values="0 0 0 0 0 0 0 0 0 0 0 0 0 0 0 0 0 0 127 0" result="hardAlpha"/>
<feOffset dy="-4"/>
<feGaussianBlur stdDeviation="5"/>
<feComposite in2="hardAlpha" operator="out"/>
<feColorMatrix type="matrix" values="0 0 0 0 0 0 0 0 0 0 0 0 0 0 0 0 0 0 0.25 0"/>
<feBlend mode="normal" in2="BackgroundImageFix" result="effect1_dropShadow_328_127"/>
<feBlend mode="normal" in="SourceGraphic" in2="effect1_dropShadow_328_127" result="shape"/>
</filter>
<filter id="filter2_d_328_127" x="618.835" y="620.742" width="88.8586" height="88.5732" filterUnits="userSpaceOnUse" color-interpolation-filters="sRGB">
<feFlood flood-opacity="0" result="BackgroundImageFix"/>
<feColorMatrix in="SourceAlpha" type="matrix" values="0 0 0 0 0 0 0 0 0 0 0 0 0 0 0 0 0 0 127 0" result="hardAlpha"/>
<feOffset dy="-4"/>
<feGaussianBlur stdDeviation="5"/>
<feComposite in2="hardAlpha" operator="out"/>
<feColorMatrix type="matrix" values="0 0 0 0 0 0 0 0 0 0 0 0 0 0 0 0 0 0 0.25 0"/>
<feBlend mode="normal" in2="BackgroundImageFix" result="effect1_dropShadow_328_127"/>
<feBlend mode="normal" in="SourceGraphic" in2="effect1_dropShadow_328_127" result="shape"/>
</filter>
<clipPath id="clip0_328_127">
<rect width="300" height="300" fill="white" transform="translate(497.868 716) rotate(-45)"/>
</clipPath>
</defs>
</svg>
