<svg xmlns="http://www.w3.org/2000/svg" width="210" height="56" fill="none"><g clip-path="url(#a)" data-figma-skip-parse="true"><foreignObject width="2269.42" height="2269.42" x="-1134.71" y="-1134.71" transform="matrix(.1065 0 0 .0135 106.5 28.065)"><div xmlns="http://www.w3.org/1999/xhtml" style="background:conic-gradient(from 90deg,#0f62fe 0deg,#fff 360deg);height:100%;width:100%;opacity:1"/></foreignObject></g><path d="M205.761 42.565v-3.274h3.274v3.274z" data-figma-gradient-fill="{&quot;type&quot;:&quot;GRADIENT_ANGULAR&quot;,&quot;stops&quot;:[{&quot;color&quot;:{&quot;r&quot;:0.058823529630899429,&quot;g&quot;:0.38431373238563538,&quot;b&quot;:0.99607843160629272,&quot;a&quot;:1.0},&quot;position&quot;:0.0},{&quot;color&quot;:{&quot;r&quot;:1.0,&quot;g&quot;:1.0,&quot;b&quot;:1.0,&quot;a&quot;:1.0},&quot;position&quot;:1.0}],&quot;stopsVar&quot;:[{&quot;color&quot;:{&quot;r&quot;:0.058823529630899429,&quot;g&quot;:0.38431373238563538,&quot;b&quot;:0.99607843160629272,&quot;a&quot;:1.0},&quot;position&quot;:0.0},{&quot;color&quot;:{&quot;r&quot;:1.0,&quot;g&quot;:1.0,&quot;b&quot;:1.0,&quot;a&quot;:1.0},&quot;position&quot;:1.0}],&quot;transform&quot;:{&quot;m00&quot;:213.0,&quot;m01&quot;:0.0,&quot;m02&quot;:-5.2970979595556855e-05,&quot;m10&quot;:0.0,&quot;m11&quot;:27.0,&quot;m12&quot;:14.565142631530762},&quot;opacity&quot;:1.0,&quot;blendMode&quot;:&quot;NORMAL&quot;,&quot;visible&quot;:true}"/><g clip-path="url(#b)" data-figma-skip-parse="true"><foreignObject width="2338.78" height="2338.78" x="-1169.39" y="-1169.39" transform="matrix(.1065 0 0 .0135 106.5 28.065)"><div xmlns="http://www.w3.org/1999/xhtml" style="background:conic-gradient(from 90deg,#0f62fe 0deg,#fff 360deg);height:100%;width:100%;opacity:1"/></foreignObject></g><path d="m181.462 42.565-8.185-8.185V13.096h3.274v19.645l6.549 6.549h6.548l9.823-9.823V13.097h3.274v29.468h-3.274V34.38l-8.186 8.185z" data-figma-gradient-fill="{&quot;type&quot;:&quot;GRADIENT_ANGULAR&quot;,&quot;stops&quot;:[{&quot;color&quot;:{&quot;r&quot;:0.058823529630899429,&quot;g&quot;:0.38431373238563538,&quot;b&quot;:0.99607843160629272,&quot;a&quot;:1.0},&quot;position&quot;:0.0},{&quot;color&quot;:{&quot;r&quot;:1.0,&quot;g&quot;:1.0,&quot;b&quot;:1.0,&quot;a&quot;:1.0},&quot;position&quot;:1.0}],&quot;stopsVar&quot;:[{&quot;color&quot;:{&quot;r&quot;:0.058823529630899429,&quot;g&quot;:0.38431373238563538,&quot;b&quot;:0.99607843160629272,&quot;a&quot;:1.0},&quot;position&quot;:0.0},{&quot;color&quot;:{&quot;r&quot;:1.0,&quot;g&quot;:1.0,&quot;b&quot;:1.0,&quot;a&quot;:1.0},&quot;position&quot;:1.0}],&quot;transform&quot;:{&quot;m00&quot;:213.0,&quot;m01&quot;:0.0,&quot;m02&quot;:0.00014143054431769997,&quot;m10&quot;:0.0,&quot;m11&quot;:26.999998092651367,&quot;m12&quot;:14.565150260925293},&quot;opacity&quot;:1.0,&quot;blendMode&quot;:&quot;NORMAL&quot;,&quot;visible&quot;:true}"/><g clip-path="url(#c)" data-figma-skip-parse="true"><foreignObject width="4209.71" height="4209.71" x="-2104.86" y="-2104.86" transform="matrix(.1065 0 0 .0135 106.5 28.065)"><div xmlns="http://www.w3.org/1999/xhtml" style="background:conic-gradient(from 90deg,#0f62fe 0deg,#fff 360deg);height:100%;width:100%;opacity:1"/></foreignObject></g><path d="m157.164 39.29 9.822-9.822V22.92l-6.548-6.549h-6.549l-9.822 9.823v6.548l6.548 6.549zm-16.372 16.372V13.097h3.275v8.185l8.185-8.185h9.823l8.186 8.185v9.823l-11.46 11.46h-9.823l-4.911-4.911v18.008z" data-figma-gradient-fill="{&quot;type&quot;:&quot;GRADIENT_ANGULAR&quot;,&quot;stops&quot;:[{&quot;color&quot;:{&quot;r&quot;:0.058823529630899429,&quot;g&quot;:0.38431373238563538,&quot;b&quot;:0.99607843160629272,&quot;a&quot;:1.0},&quot;position&quot;:0.0},{&quot;color&quot;:{&quot;r&quot;:1.0,&quot;g&quot;:1.0,&quot;b&quot;:1.0,&quot;a&quot;:1.0},&quot;position&quot;:1.0}],&quot;stopsVar&quot;:[{&quot;color&quot;:{&quot;r&quot;:0.058823529630899429,&quot;g&quot;:0.38431373238563538,&quot;b&quot;:0.99607843160629272,&quot;a&quot;:1.0},&quot;position&quot;:0.0},{&quot;color&quot;:{&quot;r&quot;:1.0,&quot;g&quot;:1.0,&quot;b&quot;:1.0,&quot;a&quot;:1.0},&quot;position&quot;:1.0}],&quot;transform&quot;:{&quot;m00&quot;:213.0,&quot;m01&quot;:0.0,&quot;m02&quot;:-0.00015255974722094834,&quot;m10&quot;:0.0,&quot;m11&quot;:27.0,&quot;m12&quot;:14.565150260925293},&quot;opacity&quot;:1.0,&quot;blendMode&quot;:&quot;NORMAL&quot;,&quot;visible&quot;:true}"/><g clip-path="url(#d)" data-figma-skip-parse="true"><foreignObject width="3794" height="3794" x="-1897" y="-1897" transform="matrix(.1065 0 0 .0135 106.5 28.065)"><div xmlns="http://www.w3.org/1999/xhtml" style="background:conic-gradient(from 90deg,#0f62fe 0deg,#fff 360deg);height:100%;width:100%;opacity:1"/></foreignObject></g><path d="M127.696 42.565V13.097h3.274v29.468zm0-36.017V3.274h3.274v3.274z" data-figma-gradient-fill="{&quot;type&quot;:&quot;GRADIENT_ANGULAR&quot;,&quot;stops&quot;:[{&quot;color&quot;:{&quot;r&quot;:0.058823529630899429,&quot;g&quot;:0.38431373238563538,&quot;b&quot;:0.99607843160629272,&quot;a&quot;:1.0},&quot;position&quot;:0.0},{&quot;color&quot;:{&quot;r&quot;:1.0,&quot;g&quot;:1.0,&quot;b&quot;:1.0,&quot;a&quot;:1.0},&quot;position&quot;:1.0}],&quot;stopsVar&quot;:[{&quot;color&quot;:{&quot;r&quot;:0.058823529630899429,&quot;g&quot;:0.38431373238563538,&quot;b&quot;:0.99607843160629272,&quot;a&quot;:1.0},&quot;position&quot;:0.0},{&quot;color&quot;:{&quot;r&quot;:1.0,&quot;g&quot;:1.0,&quot;b&quot;:1.0,&quot;a&quot;:1.0},&quot;position&quot;:1.0}],&quot;transform&quot;:{&quot;m00&quot;:213.0,&quot;m01&quot;:0.0,&quot;m02&quot;:0.00015650782734155655,&quot;m10&quot;:0.0,&quot;m11&quot;:27.0,&quot;m12&quot;:14.565139770507812},&quot;opacity&quot;:1.0,&quot;blendMode&quot;:&quot;NORMAL&quot;,&quot;visible&quot;:true}"/><g clip-path="url(#e)" data-figma-skip-parse="true"><foreignObject width="3794" height="3794" x="-1897" y="-1897" transform="matrix(.1065 0 0 .0135 106.5 28.065)"><div xmlns="http://www.w3.org/1999/xhtml" style="background:conic-gradient(from 90deg,#0f62fe 0deg,#fff 360deg);height:100%;width:100%;opacity:1"/></foreignObject></g><path d="m119.51 42.565-4.912-4.911V16.37h-3.274v-3.274h3.274V3.274h3.275v9.823h6.548v3.274h-6.548v19.646l4.093 4.092z" data-figma-gradient-fill="{&quot;type&quot;:&quot;GRADIENT_ANGULAR&quot;,&quot;stops&quot;:[{&quot;color&quot;:{&quot;r&quot;:0.058823529630899429,&quot;g&quot;:0.38431373238563538,&quot;b&quot;:0.99607843160629272,&quot;a&quot;:1.0},&quot;position&quot;:0.0},{&quot;color&quot;:{&quot;r&quot;:1.0,&quot;g&quot;:1.0,&quot;b&quot;:1.0,&quot;a&quot;:1.0},&quot;position&quot;:1.0}],&quot;stopsVar&quot;:[{&quot;color&quot;:{&quot;r&quot;:0.058823529630899429,&quot;g&quot;:0.38431373238563538,&quot;b&quot;:0.99607843160629272,&quot;a&quot;:1.0},&quot;position&quot;:0.0},{&quot;color&quot;:{&quot;r&quot;:1.0,&quot;g&quot;:1.0,&quot;b&quot;:1.0,&quot;a&quot;:1.0},&quot;position&quot;:1.0}],&quot;transform&quot;:{&quot;m00&quot;:213.0,&quot;m01&quot;:0.0,&quot;m02&quot;:-0.00019265897572040558,&quot;m10&quot;:0.0,&quot;m11&quot;:27.0,&quot;m12&quot;:14.565139770507812},&quot;opacity&quot;:1.0,&quot;blendMode&quot;:&quot;NORMAL&quot;,&quot;visible&quot;:true}"/><g clip-path="url(#f)" data-figma-skip-parse="true"><foreignObject width="4279.08" height="4279.08" x="-2139.54" y="-2139.54" transform="matrix(.1065 0 0 .0135 106.5 28.065)"><div xmlns="http://www.w3.org/1999/xhtml" style="background:conic-gradient(from 90deg,#0f62fe 0deg,#fff 360deg);height:100%;width:100%;opacity:1"/></foreignObject></g><path d="M63.848 42.565V0h3.274v26.194h9.823l13.097-13.097 2.455 2.456L80.22 27.83 92.497 40.11l-2.455 2.456-13.097-13.097h-9.823v13.097z" data-figma-gradient-fill="{&quot;type&quot;:&quot;GRADIENT_ANGULAR&quot;,&quot;stops&quot;:[{&quot;color&quot;:{&quot;r&quot;:0.058823529630899429,&quot;g&quot;:0.38431373238563538,&quot;b&quot;:0.99607843160629272,&quot;a&quot;:1.0},&quot;position&quot;:0.0},{&quot;color&quot;:{&quot;r&quot;:1.0,&quot;g&quot;:1.0,&quot;b&quot;:1.0,&quot;a&quot;:1.0},&quot;position&quot;:1.0}],&quot;stopsVar&quot;:[{&quot;color&quot;:{&quot;r&quot;:0.058823529630899429,&quot;g&quot;:0.38431373238563538,&quot;b&quot;:0.99607843160629272,&quot;a&quot;:1.0},&quot;position&quot;:0.0},{&quot;color&quot;:{&quot;r&quot;:1.0,&quot;g&quot;:1.0,&quot;b&quot;:1.0,&quot;a&quot;:1.0},&quot;position&quot;:1.0}],&quot;transform&quot;:{&quot;m00&quot;:212.99998474121094,&quot;m01&quot;:0.0,&quot;m02&quot;:-0.00016320773283950984,&quot;m10&quot;:0.0,&quot;m11&quot;:27.0,&quot;m12&quot;:14.565216064453125},&quot;opacity&quot;:1.0,&quot;blendMode&quot;:&quot;NORMAL&quot;,&quot;visible&quot;:true}"/><g clip-path="url(#g)" data-figma-skip-parse="true"><foreignObject width="2338.78" height="2338.78" x="-1169.39" y="-1169.39" transform="matrix(.1065 0 0 .0135 106.5 28.065)"><div xmlns="http://www.w3.org/1999/xhtml" style="background:conic-gradient(from 90deg,#0f62fe 0deg,#fff 360deg);height:100%;width:100%;opacity:1"/></foreignObject></g><path d="M58.118 26.194V22.92l-6.549-6.549h-6.548l-9.823 9.823zM40.109 42.565l-8.185-8.185v-9.823l11.46-11.46h9.822l8.186 8.185v8.186H35.198v3.274l6.549 6.549h6.548l6.549-6.549 2.455 2.456-7.367 7.367z" data-figma-gradient-fill="{&quot;type&quot;:&quot;GRADIENT_ANGULAR&quot;,&quot;stops&quot;:[{&quot;color&quot;:{&quot;r&quot;:0.058823529630899429,&quot;g&quot;:0.38431373238563538,&quot;b&quot;:0.99607843160629272,&quot;a&quot;:1.0},&quot;position&quot;:0.0},{&quot;color&quot;:{&quot;r&quot;:1.0,&quot;g&quot;:1.0,&quot;b&quot;:1.0,&quot;a&quot;:1.0},&quot;position&quot;:1.0}],&quot;stopsVar&quot;:[{&quot;color&quot;:{&quot;r&quot;:0.058823529630899429,&quot;g&quot;:0.38431373238563538,&quot;b&quot;:0.99607843160629272,&quot;a&quot;:1.0},&quot;position&quot;:0.0},{&quot;color&quot;:{&quot;r&quot;:1.0,&quot;g&quot;:1.0,&quot;b&quot;:1.0,&quot;a&quot;:1.0},&quot;position&quot;:1.0}],&quot;transform&quot;:{&quot;m00&quot;:213.0,&quot;m01&quot;:0.0,&quot;m02&quot;:-8.2232058048248291e-05,&quot;m10&quot;:0.0,&quot;m11&quot;:26.999998092651367,&quot;m12&quot;:14.565150260925293},&quot;opacity&quot;:1.0,&quot;blendMode&quot;:&quot;NORMAL&quot;,&quot;visible&quot;:true}"/><g clip-path="url(#h)" data-figma-skip-parse="true"><foreignObject width="2338.78" height="2338.78" x="-1169.39" y="-1169.39" transform="matrix(.1065 0 0 .0135 106.5 28.065)"><div xmlns="http://www.w3.org/1999/xhtml" style="background:conic-gradient(from 90deg,#0f62fe 0deg,#fff 360deg);height:100%;width:100%;opacity:1"/></foreignObject></g><path d="M8.186 42.565 0 34.38v-9.823l11.46-11.46h9.823l7.367 7.367-2.456 2.456-6.549-6.549h-6.548l-9.823 9.823v6.548l6.549 6.549h6.548l9.823-9.823 2.456 2.456-10.642 10.641z" data-figma-gradient-fill="{&quot;type&quot;:&quot;GRADIENT_ANGULAR&quot;,&quot;stops&quot;:[{&quot;color&quot;:{&quot;r&quot;:0.058823529630899429,&quot;g&quot;:0.38431373238563538,&quot;b&quot;:0.99607843160629272,&quot;a&quot;:1.0},&quot;position&quot;:0.0},{&quot;color&quot;:{&quot;r&quot;:1.0,&quot;g&quot;:1.0,&quot;b&quot;:1.0,&quot;a&quot;:1.0},&quot;position&quot;:1.0}],&quot;stopsVar&quot;:[{&quot;color&quot;:{&quot;r&quot;:0.058823529630899429,&quot;g&quot;:0.38431373238563538,&quot;b&quot;:0.99607843160629272,&quot;a&quot;:1.0},&quot;position&quot;:0.0},{&quot;color&quot;:{&quot;r&quot;:1.0,&quot;g&quot;:1.0,&quot;b&quot;:1.0,&quot;a&quot;:1.0},&quot;position&quot;:1.0}],&quot;transform&quot;:{&quot;m00&quot;:213.0,&quot;m01&quot;:0.0,&quot;m02&quot;:1.4811529096913277e-24,&quot;m10&quot;:0.0,&quot;m11&quot;:26.999998092651367,&quot;m12&quot;:14.565150260925293},&quot;opacity&quot;:1.0,&quot;blendMode&quot;:&quot;NORMAL&quot;,&quot;visible&quot;:true}"/><g clip-path="url(#i)" data-figma-skip-parse="true"><foreignObject width="2714.95" height="2714.95" x="-1357.48" y="-1357.48" transform="matrix(.00908 0 0 .00687 156.219 26.392)"><div xmlns="http://www.w3.org/1999/xhtml" style="background:conic-gradient(from 90deg,#0f62fe 0deg,#fff 360deg);height:100%;width:100%;opacity:1"/></foreignObject></g><path d="m160.456 18.703 5.66 5.66v4.058l-5.421 5.42-.239.24h-10.651l-.19-.11-3.293-1.9v-6.19l7.178-7.178zm-12.497 12.422 2.285 1.32h9.534l4.701-4.703v-2.7l-4.702-4.702h-5.598l-6.22 6.22z" data-figma-gradient-fill="{&quot;type&quot;:&quot;GRADIENT_ANGULAR&quot;,&quot;stops&quot;:[{&quot;color&quot;:{&quot;r&quot;:0.058823529630899429,&quot;g&quot;:0.38431373238563538,&quot;b&quot;:0.99607843160629272,&quot;a&quot;:1.0},&quot;position&quot;:0.0},{&quot;color&quot;:{&quot;r&quot;:1.0,&quot;g&quot;:1.0,&quot;b&quot;:1.0,&quot;a&quot;:1.0},&quot;position&quot;:1.0}],&quot;stopsVar&quot;:[{&quot;color&quot;:{&quot;r&quot;:0.058823529630899429,&quot;g&quot;:0.38431373238563538,&quot;b&quot;:0.99607843160629272,&quot;a&quot;:1.0},&quot;position&quot;:0.0},{&quot;color&quot;:{&quot;r&quot;:1.0,&quot;g&quot;:1.0,&quot;b&quot;:1.0,&quot;a&quot;:1.0},&quot;position&quot;:1.0}],&quot;transform&quot;:{&quot;m00&quot;:18.157409667968750,&quot;m01&quot;:0.0,&quot;m02&quot;:147.1406250,&quot;m10&quot;:0.0,&quot;m11&quot;:13.741534233093262,&quot;m12&quot;:19.5212402343750},&quot;opacity&quot;:1.0,&quot;blendMode&quot;:&quot;NORMAL&quot;,&quot;visible&quot;:true}"/><path fill="#C60000" d="M158.145 25.395h-3.852a1.332 1.332 0 1 0 0 2.663h3.852a1.332 1.332 0 1 0 0-2.663"/><g clip-path="url(#j)" data-figma-skip-parse="true"><foreignObject width="5688.55" height="5688.55" x="-2844.28" y="-2844.28" transform="matrix(.00326 0 0 .00133 156.219 26.727)"><div xmlns="http://www.w3.org/1999/xhtml" style="background:conic-gradient(from 90deg,#0f62fe 0deg,#fff 360deg);height:100%;width:100%;opacity:1"/></foreignObject></g><path d="M158.658 26.727a.513.513 0 0 0-.512-.514h-3.853a.514.514 0 1 0 0 1.026h3.853c.283 0 .512-.229.512-.512m1.638 0a2.15 2.15 0 0 1-2.15 2.15h-3.853a2.15 2.15 0 1 1 0-4.3h3.853a2.15 2.15 0 0 1 2.15 2.15" data-figma-gradient-fill="{&quot;type&quot;:&quot;GRADIENT_ANGULAR&quot;,&quot;stops&quot;:[{&quot;color&quot;:{&quot;r&quot;:0.058823529630899429,&quot;g&quot;:0.38431373238563538,&quot;b&quot;:0.99607843160629272,&quot;a&quot;:1.0},&quot;position&quot;:0.0},{&quot;color&quot;:{&quot;r&quot;:1.0,&quot;g&quot;:1.0,&quot;b&quot;:1.0,&quot;a&quot;:1.0},&quot;position&quot;:1.0}],&quot;stopsVar&quot;:[{&quot;color&quot;:{&quot;r&quot;:0.058823529630899429,&quot;g&quot;:0.38431373238563538,&quot;b&quot;:0.99607843160629272,&quot;a&quot;:1.0},&quot;position&quot;:0.0},{&quot;color&quot;:{&quot;r&quot;:1.0,&quot;g&quot;:1.0,&quot;b&quot;:1.0,&quot;a&quot;:1.0},&quot;position&quot;:1.0}],&quot;transform&quot;:{&quot;m00&quot;:6.5161199569702148,&quot;m01&quot;:0.0,&quot;m02&quot;:152.96093750,&quot;m10&quot;:0.0,&quot;m11&quot;:2.6634633541107178,&quot;m12&quot;:25.39489746093750},&quot;opacity&quot;:1.0,&quot;blendMode&quot;:&quot;NORMAL&quot;,&quot;visible&quot;:true}"/><path fill="#C60000" d="M50.24 20.065h-3.853a1.332 1.332 0 0 0 0 2.663h3.853a1.332 1.332 0 0 0 0-2.663"/><g clip-path="url(#k)" data-figma-skip-parse="true"><foreignObject width="5688.55" height="5688.55" x="-2844.28" y="-2844.28" transform="matrix(.00326 0 0 .00133 48.314 21.397)"><div xmlns="http://www.w3.org/1999/xhtml" style="background:conic-gradient(from 90deg,#0f62fe 0deg,#fff 360deg);height:100%;width:100%;opacity:1"/></foreignObject></g><path d="M50.753 21.397a.513.513 0 0 0-.513-.514h-3.852a.514.514 0 0 0 0 1.027h3.852c.283 0 .513-.23.513-.513m1.638 0a2.15 2.15 0 0 1-2.15 2.15h-3.853a2.15 2.15 0 0 1 0-4.3h3.852a2.15 2.15 0 0 1 2.15 2.15" data-figma-gradient-fill="{&quot;type&quot;:&quot;GRADIENT_ANGULAR&quot;,&quot;stops&quot;:[{&quot;color&quot;:{&quot;r&quot;:0.058823529630899429,&quot;g&quot;:0.38431373238563538,&quot;b&quot;:0.99607843160629272,&quot;a&quot;:1.0},&quot;position&quot;:0.0},{&quot;color&quot;:{&quot;r&quot;:1.0,&quot;g&quot;:1.0,&quot;b&quot;:1.0,&quot;a&quot;:1.0},&quot;position&quot;:1.0}],&quot;stopsVar&quot;:[{&quot;color&quot;:{&quot;r&quot;:0.058823529630899429,&quot;g&quot;:0.38431373238563538,&quot;b&quot;:0.99607843160629272,&quot;a&quot;:1.0},&quot;position&quot;:0.0},{&quot;color&quot;:{&quot;r&quot;:1.0,&quot;g&quot;:1.0,&quot;b&quot;:1.0,&quot;a&quot;:1.0},&quot;position&quot;:1.0}],&quot;transform&quot;:{&quot;m00&quot;:6.5161199569702148,&quot;m01&quot;:0.0,&quot;m02&quot;:45.05566406250,&quot;m10&quot;:0.0,&quot;m11&quot;:2.6634633541107178,&quot;m12&quot;:20.064941406250},&quot;opacity&quot;:1.0,&quot;blendMode&quot;:&quot;NORMAL&quot;,&quot;visible&quot;:true}"/><g clip-path="url(#l)" data-figma-skip-parse="true"><foreignObject width="11821.9" height="11821.9" x="-5910.97" y="-5910.97" transform="matrix(.00316 0 0 .0005 154.035 37.182)"><div xmlns="http://www.w3.org/1999/xhtml" style="background:conic-gradient(from 90deg,#0f62fe 0deg,#fff 360deg);height:100%;width:100%;opacity:1"/></foreignObject></g><path d="M157.199 35.864v1.637h-6.329v-1.637z" data-figma-gradient-fill="{&quot;type&quot;:&quot;GRADIENT_ANGULAR&quot;,&quot;stops&quot;:[{&quot;color&quot;:{&quot;r&quot;:0.058823529630899429,&quot;g&quot;:0.38431373238563538,&quot;b&quot;:0.99607843160629272,&quot;a&quot;:1.0},&quot;position&quot;:0.0},{&quot;color&quot;:{&quot;r&quot;:1.0,&quot;g&quot;:1.0,&quot;b&quot;:1.0,&quot;a&quot;:1.0},&quot;position&quot;:1.0}],&quot;stopsVar&quot;:[{&quot;color&quot;:{&quot;r&quot;:0.058823529630899429,&quot;g&quot;:0.38431373238563538,&quot;b&quot;:0.99607843160629272,&quot;a&quot;:1.0},&quot;position&quot;:0.0},{&quot;color&quot;:{&quot;r&quot;:1.0,&quot;g&quot;:1.0,&quot;b&quot;:1.0,&quot;a&quot;:1.0},&quot;position&quot;:1.0}],&quot;transform&quot;:{&quot;m00&quot;:6.3290662765502930,&quot;m01&quot;:0.0,&quot;m02&quot;:150.87011718750,&quot;m10&quot;:0.0,&quot;m11&quot;:1.0,&quot;m12&quot;:36.6823730468750},&quot;opacity&quot;:1.0,&quot;blendMode&quot;:&quot;NORMAL&quot;,&quot;visible&quot;:true}"/><defs><clipPath id="a"><path d="M205.761 42.565v-3.274h3.274v3.274z"/></clipPath><clipPath id="b"><path d="m181.462 42.565-8.185-8.185V13.096h3.274v19.645l6.549 6.549h6.548l9.823-9.823V13.097h3.274v29.468h-3.274V34.38l-8.186 8.185z"/></clipPath><clipPath id="c"><path d="m157.164 39.29 9.822-9.822V22.92l-6.548-6.549h-6.549l-9.822 9.823v6.548l6.548 6.549zm-16.372 16.372V13.097h3.275v8.185l8.185-8.185h9.823l8.186 8.185v9.823l-11.46 11.46h-9.823l-4.911-4.911v18.008z"/></clipPath><clipPath id="d"><path d="M127.696 42.565V13.097h3.274v29.468zm0-36.017V3.274h3.274v3.274z"/></clipPath><clipPath id="e"><path d="m119.51 42.565-4.912-4.911V16.37h-3.274v-3.274h3.274V3.274h3.275v9.823h6.548v3.274h-6.548v19.646l4.093 4.092z"/></clipPath><clipPath id="f"><path d="M63.848 42.565V0h3.274v26.194h9.823l13.097-13.097 2.455 2.456L80.22 27.83 92.497 40.11l-2.455 2.456-13.097-13.097h-9.823v13.097z"/></clipPath><clipPath id="g"><path d="M58.118 26.194V22.92l-6.549-6.549h-6.548l-9.823 9.823zM40.109 42.565l-8.185-8.185v-9.823l11.46-11.46h9.822l8.186 8.185v8.186H35.198v3.274l6.549 6.549h6.548l6.549-6.549 2.455 2.456-7.367 7.367z"/></clipPath><clipPath id="h"><path d="M8.186 42.565 0 34.38v-9.823l11.46-11.46h9.823l7.367 7.367-2.456 2.456-6.549-6.549h-6.548l-9.823 9.823v6.548l6.549 6.549h6.548l9.823-9.823 2.456 2.456-10.642 10.641z"/></clipPath><clipPath id="i"><path d="m160.456 18.703 5.66 5.66v4.058l-5.421 5.42-.239.24h-10.651l-.19-.11-3.293-1.9v-6.19l7.178-7.178zm-12.497 12.422 2.285 1.32h9.534l4.701-4.703v-2.7l-4.702-4.702h-5.598l-6.22 6.22z"/></clipPath><clipPath id="j"><path d="M158.658 26.727a.513.513 0 0 0-.512-.514h-3.853a.514.514 0 1 0 0 1.026h3.853c.283 0 .512-.229.512-.512m1.638 0a2.15 2.15 0 0 1-2.15 2.15h-3.853a2.15 2.15 0 1 1 0-4.3h3.853a2.15 2.15 0 0 1 2.15 2.15"/></clipPath><clipPath id="k"><path d="M50.753 21.397a.513.513 0 0 0-.513-.514h-3.852a.514.514 0 0 0 0 1.027h3.852c.283 0 .513-.23.513-.513m1.638 0a2.15 2.15 0 0 1-2.15 2.15h-3.853a2.15 2.15 0 0 1 0-4.3h3.852a2.15 2.15 0 0 1 2.15 2.15"/></clipPath><clipPath id="l"><path d="M157.199 35.864v1.637h-6.329v-1.637z"/></clipPath></defs></svg>