<svg width="179" height="179" viewBox="0 0 179 179" fill="none" xmlns="http://www.w3.org/2000/svg">
<path d="M118.709 74.1931C118.709 82.064 115.582 89.6125 110.017 95.1781C104.451 100.744 96.9026 103.87 89.0317 103.87C81.1608 103.87 73.6123 100.744 68.0468 95.1781C62.4812 89.6125 59.3545 82.064 59.3545 74.1931C59.3545 66.3222 62.4812 58.7737 68.0468 53.2081C73.6123 47.6426 81.1608 44.5159 89.0317 44.5159C96.9026 44.5159 104.451 47.6426 110.017 53.2081C115.582 58.7737 118.709 66.3222 118.709 74.1931Z" fill="white"/>
<path fill-rule="evenodd" clip-rule="evenodd" d="M86.0046 163.165C46.4337 161.578 14.8386 128.992 14.8386 89.0317C14.8386 48.0549 48.0549 14.8386 89.0317 14.8386C130.009 14.8386 163.225 48.0549 163.225 89.0317C163.225 130.009 130.009 163.225 89.0317 163.225H88.0153C87.3426 163.225 86.6724 163.205 86.0046 163.165ZM41.422 135.848C40.8673 134.254 40.6785 132.557 40.8696 130.881C41.0607 129.205 41.6268 127.594 42.5259 126.166C43.425 124.739 44.6341 123.533 46.0632 122.637C47.4924 121.741 49.1051 121.178 50.7815 120.99C79.7019 117.789 98.5395 118.078 127.319 121.057C128.998 121.232 130.614 121.788 132.046 122.682C133.477 123.576 134.686 124.784 135.579 126.216C136.473 127.648 137.028 129.265 137.203 130.943C137.377 132.622 137.166 134.318 136.586 135.903C148.921 123.424 155.828 106.578 155.805 89.0317C155.805 52.154 125.909 22.2579 89.0317 22.2579C52.154 22.2579 22.2579 52.154 22.2579 89.0317C22.2579 107.268 29.5697 123.799 41.422 135.848Z" fill="white"/>
</svg>
