<svg width="17" height="18" viewBox="0 0 17 18" fill="none" xmlns="http://www.w3.org/2000/svg">
<path d="M0 7.59512H16.878V9.28293H0V7.59512ZM0 9.28293H1.6878V16.0341H0V9.28293ZM1.6878 16.0341H15.1902V17.722H1.6878V16.0341ZM15.1902 9.28293H16.878V16.0341H15.1902V9.28293ZM5.90732 10.9707H10.9707V12.6585H5.90732V10.9707ZM1.6878 5.06341H3.37561V7.59512H1.6878V5.06341ZM3.37561 3.37561H8.43902V5.06341H3.37561V3.37561ZM8.43902 5.06341H10.1268V7.59512H8.43902V5.06341ZM5.06341 1.6878H6.75122V3.37561H5.06341V1.6878ZM13.5024 1.6878H15.1902V7.59512H13.5024V1.6878ZM6.75122 0H13.5024V1.6878H6.75122V0Z" fill="#C6C6C6"/>
</svg>
