<svg width="23" height="23" viewBox="0 0 23 23" fill="none" xmlns="http://www.w3.org/2000/svg">
<path d="M3.79746 0.949318H8.54441V2.8481H3.79746V0.949318ZM8.54441 2.8481H10.4432V6.64566H8.54441V2.8481ZM6.64563 6.64566H8.54441V10.4432H6.64563V6.64566ZM3.79746 11.3926H5.69624V13.2914H3.79746V11.3926ZM1.89868 2.8481H3.79746V11.3926H1.89868V2.8481ZM8.54441 10.4432H10.4432V12.342H8.54441V10.4432ZM10.4432 12.342H12.342V14.2408H10.4432V12.342ZM12.342 14.2408H16.1395V16.1396H12.342V14.2408ZM16.1395 12.342H19.9371V14.2408H16.1395V12.342ZM19.9371 14.2408H21.8359V18.9877H19.9371V14.2408ZM5.69624 13.2914H7.59502V15.1902H5.69624V13.2914ZM7.59502 15.1902H9.4938V17.089H7.59502V15.1902ZM9.4938 17.089H11.3926V18.9877H9.4938V17.089ZM11.3926 18.9877H19.9371V20.8865H11.3926V18.9877Z" fill="#C6C6C6"/>
</svg>
